# xmcd
#
# Track frame offsets:
#	150
#	14468
#	27985
#	40500
#	50483
#	62699
#	79971
#	92476
#	104529
#	115341
#	134611
#	146434
#	181431
#	191891
#
# Disc length: 2717 seconds
#
# Revision: 0
# Processed by: cddbd v1.4PL0 Copyright (c) Steve Scherf et al.
# Submitted via: dBpowerAMP V4.0
#
DISCID=c40a9b0e
DTITLE=Dyzack - The Rat Dance refizz
DYEAR=1999
DGENRE=Blues
TTITLE0=In humble sync.
TTITLE1=Last swing on a diamond rope
TTITLE2=Wheeply soul
TTITLE3=Tragafuegos
TTITLE4=Haunt
TTITLE5=Faster than a thought
TTITLE6=Giving you a hat on
TTITLE7=Moved in a blaze
TTITLE8=Exotical "O"
TTITLE9=Roll over white eyes
TTITLE10=Wacked slave on the moon
TTITLE11=From the blue bean whoops machine
TTITLE12=Rat Dance refizz
TTITLE13=Mal de ojo
EXTD=
EXTT0=
EXTT1=
EXTT2=
EXTT3=
EXTT4=
EXTT5=
EXTT6=
EXTT7=
EXTT8=
EXTT9=
EXTT10=
EXTT11=
EXTT12=
EXTT13=
PLAYORDER=
